<?xml version="1.0" encoding="utf-8"?>
<!-- Generator: Adobe Illustrator 25.2.3, SVG Export Plug-In . SVG Version: 6.00 Build 0)  -->
<svg version="1.1" id="レイヤー_1" xmlns="http://www.w3.org/2000/svg" xmlns:xlink="http://www.w3.org/1999/xlink" x="0px"
	 y="0px" viewBox="0 0 485.5 225.6" style="enable-background:new 0 0 485.5 225.6;" xml:space="preserve">
<g>
	<path d="M71.8,185.4c-5.4-0.3-10.7-0.7-16.1-0.8c-3.2-0.1-4.1-1.7-3.7-4.5c0.8-6.5,1.4-13,2.5-19.4c2.9-17.6,5.9-35.2,8.9-52.8
		c1.8-10.5,3.6-21,5.5-31.5c1.5-8,3.1-16.1,4.9-24c0.3-1.2,2.2-2.7,3.4-2.8c10.3-0.6,20.6-0.9,31-1.3c2.9-0.1,3.5,1.4,3.1,4
		c-1.5,9.5-2.8,19-4.3,28.5c-1.1,6.8-2.2,13.6-3.6,20.3c-0.5,2.5,0.5,3.2,2.5,3.2c3.3-0.1,6.5-0.4,9.8-0.8c11.5-1.5,23-3.1,34.5-4.6
		c2.7-0.4,3.6,0.8,3.3,3.4c-1.1,7.7-2,15.5-3.4,23.2c-0.2,1.3-2.1,3-3.5,3.4c-4.3,1-8.8,1.4-13.2,2c-11.1,1.5-22.2,3-33.3,4.8
		c-1.3,0.2-3,2.2-3.2,3.6c-1.6,9.6-2.8,19.3-4.1,29c-0.7,5.2-1.4,10.3-2.4,15.4c-0.2,1-2.1,2.2-3.2,2.2c-5.1,0.2-10.2,0.1-15.3,0.1
		C71.8,185.7,71.8,185.5,71.8,185.4z"/>
	<path d="M357.2,185.4c-5.1-0.3-10.2-0.7-15.3-0.8c-3.7,0-4.9-1.7-4.4-5.1c1.4-10.4,2.6-20.9,4.2-31.3c2.6-16.6,5.2-33.2,8.2-49.7
		c2.8-15.5,6-30.8,9.3-46.2c0.2-1.2,2.1-2.8,3.3-2.8c10.2-0.6,20.4-0.9,30.6-1.3c2.4-0.1,3.5,0.8,3.1,3.6c-1.3,8.5-2.2,17-3.5,25.5
		c-1.1,7-2.4,14.1-3.8,21.1c-1.1,5.4-0.5,6.4,5,5.7c13.6-1.6,27.2-3.3,40.8-5.2c3.2-0.4,4.5,0.4,4,3.7c-1.1,7.6-2.1,15.2-3.5,22.8
		c-0.3,1.4-2.1,3.1-3.5,3.5c-4.2,1-8.5,1.4-12.8,2c-11.2,1.6-22.5,3-33.7,4.8c-1.3,0.2-3.1,2.1-3.3,3.4c-2.1,14-4,28.1-5.6,42.2
		c-0.4,3.8-1.7,4.9-5.3,4.7c-4.6-0.3-9.1-0.1-13.7-0.1C357.2,185.7,357.2,185.5,357.2,185.4z"/>
	<path d="M235.8,48.9c4.8-0.2,9.7-0.3,14.5-0.7c2.8-0.2,4,0.8,3.6,3.5c-1.3,9.3-2.7,18.5-4.1,27.8c-1.1,7.2-2.2,14.4-3.3,21.6
		c-0.3,2.3,0.5,3.5,3,3.2c9.3-1.2,18.6-2.3,28-3.5c5.6-0.7,11.1-1.6,16.7-2.1c0.8-0.1,2,1.2,2.5,2.1c0.4,0.8,0.1,2.1,0,3.1
		c-1.1,6.7-2.3,13.4-3.3,20c-0.5,3.3-2.1,4.9-5.6,5.2c-12.2,1.3-24.4,2.9-36.5,4.5c-3.1,0.4-6.2,1-9.1,2.1c-1.1,0.4-2.3,2.1-2.5,3.3
		c-1.9,13.8-3.6,27.6-5.3,41.4c-0.6,4.9-1.1,5.5-6.2,5.3c-9.5-0.4-19.1-0.9-28.6-1.2c-3.3-0.1-4.4-1.6-4.1-4.7
		c1.1-9.3,1.9-18.7,3.3-27.9c2.1-14,4.4-28.1,6.9-42c2.7-14.7,5.8-29.3,8.7-44c0.9-4.6,1.9-9.1,2.7-13.7c0.4-2.2,1.4-3.1,3.7-3
		c5,0.1,9.9,0,14.9,0C235.8,49.1,235.8,49,235.8,48.9z"/>
	<path d="M141.2,42.6c1.4-0.1,2.9-0.2,4.3-0.4c5.1-0.4,5.5-0.2,4.9,5c-1,8.4-2.3,16.8-3.8,25.1c-0.3,1.4-1.9,3.5-3.2,3.7
		c-5.4,0.9-10.9,1.3-16.3,1.8c-2.5,0.2-3.2-0.9-2.8-3.3c1.5-9.4,2.9-18.7,4.5-28.1c0.2-1.2,1.8-2.9,3.1-3.1c3-0.7,6.2-0.6,9.3-0.8
		C141.2,42.5,141.2,42.5,141.2,42.6z"/>
	<path d="M296.9,43.3c-1.5,9.1-2.9,18.2-4.6,27.3c-0.2,1.2-2,2.7-3.3,3c-4.9,0.9-9.8,1.2-14.8,1.8c-3.2,0.4-4.3-0.9-3.8-4
		c1.6-9.3,3-18.7,4.8-28c0.2-1.2,2.4-2.7,3.7-2.8c4.6-0.6,9.4-0.4,14-0.9C296,39.4,297.2,40.4,296.9,43.3z"/>
	<path d="M428.7,40.1c1-0.1,2.1-0.1,3.1-0.2c7.4-0.5,7.5-0.5,6.6,7c-0.9,7.5-2.3,14.9-3.4,22.4c-0.4,2.9-1.9,4.3-4.9,4.5
		c-4.8,0.4-9.6,1.1-14.4,1.6c-3.1,0.3-3.8-1-3.3-3.9c1.6-8.9,3-17.9,4.2-26.9c0.4-2.7,1.5-4,4.1-4.1c2.6,0,5.2,0,7.8,0
		C428.7,40.4,428.7,40.3,428.7,40.1z"/>
	<path d="M454.5,39.2c9.3-0.7,9.4-0.7,8.1,8.2c-0.9,6.3-2.2,12.5-3.2,18.8c-0.6,3.4-2.3,5.3-5.9,5.5c-3.2,0.2-6.5,0.7-9.7,1.1
		c-2.4,0.3-3.5-0.6-3.2-3c1.2-8.9,2.4-17.7,3.7-26.6c0.4-2.9,2.1-4.3,5.2-4C451.1,39.3,452.8,39.2,454.5,39.2z"/>
	<path d="M312.8,39.2c11.1-0.9,9-0.6,7.9,8.1c-0.9,6.9-2.5,13.8-4.2,20.6c-0.4,1.4-2.3,3-3.9,3.4c-3.5,0.9-7.2,1-10.9,1.4
		c-2.5,0.3-3.6-0.5-3.2-3.3c1.2-8.6,2.2-17.2,3.2-25.9c0.3-3,1.7-4.5,4.8-4.4C308.7,39.3,310.8,39.2,312.8,39.2z"/>
	<path d="M152.2,72.5c1.3-9.2,2.2-17.2,3.5-25.2c0.9-5.3,1.6-5.6,7-5.7c3.3,0,6.5-0.3,9.8-0.3c2.3,0,3.6,0.7,3.1,3.6
		c-1.5,7.8-2.9,15.6-4.2,23.4c-0.6,3.9-2.4,6.1-6.7,6.1c-2.7,0-5.4,0.6-8.1,1C153.4,75.7,151.7,74.7,152.2,72.5z"/>
</g>
</svg>
