<?xml version="1.0" encoding="utf-8"?>
<!-- Generator: Adobe Illustrator 25.2.3, SVG Export Plug-In . SVG Version: 6.00 Build 0)  -->
<svg version="1.1" id="レイヤー_1" xmlns="http://www.w3.org/2000/svg" xmlns:xlink="http://www.w3.org/1999/xlink" x="0px"
	 y="0px" viewBox="0 0 549.2 225.6" style="enable-background:new 0 0 549.2 225.6;" xml:space="preserve">
<style type="text/css">
	.st0{fill:#FFFFFF;}
</style>
<g>
	<polygon class="st0" points="204.8,87.1 200.5,108 249.1,117.3 254.1,109.3 254.1,95.1 	"/>
	<path class="st0" d="M327.9,79.7c-1.8,1.2-91.7,77.5-91.7,77.5l14.8,17.8l52.9-47.4l32-33.2L327.9,79.7z"/>
	<path class="st0" d="M412.8,58.8c-0.6,1.8-4.9,28.3-4.9,28.3l-47.4,3.1l0.6,20.3h43.7l-8.6,65.8l7.4,3.7l15.4-3.1l8.6-65.8
		l25.8-1.2l0.6,32.6l-4.3,33.8h10.5l12.3-4.3l9.2-78.1l29.5-3.1l4.9-43.1l-24-1.8l-8.6,1.2L476.1,84H430l1.2-27.7l-8-1.8L412.8,58.8
		z"/>
	<g>
		<polygon class="st0" points="126.1,135.1 177.8,75.4 179.6,55.8 168.6,53.3 37.5,65 38.1,85.3 54.8,85.9 140.9,82.8 108.3,121 
			91.7,113.6 80,129.6 136.6,170.8 147,156.6 		"/>
		<g id="bH8cqF.tif">
			<g>
				<path d="M381.5,83.3c5.3,0,10.7-0.3,16,0.1c4.8,0.3,7-1.8,7.5-6.1c0.6-5,1-9.9,1.5-14.9c0.9-8.9,3.7-11.6,12.5-11.9
					c2.6-0.1,5.2-0.4,7.8-0.3c6.3,0.3,9.5,3.6,9.1,10c-0.3,5.1-1.1,10.3-2.1,15.3c-0.9,4.3,0.4,6.1,4.8,5.9
					c10-0.4,20.1-0.7,30.1-0.9c4.4-0.1,5.2-3.1,5.4-6.6c0.6-7.1,0.8-14.2,1.8-21.2c1.4-9.9,3.2-11.3,13.3-11.2
					c7.3,0,14.6,0.2,21.8,0.3c6,0.1,9.2,3.2,9.1,9.4c-0.1,3.7-0.5,7.4-1.1,11.1c-1.3,8.1-2.9,16.2-4.3,24.2
					c-1.1,6.2-5.1,8.2-11.1,8.7c-5.2,0.4-10.4,0.6-15.5,0.5c-3.5-0.1-5.1,1.4-5.6,4.6c-0.3,2.1-0.7,4.1-0.9,6.2
					c-1.8,20.1-3.6,40.2-5.5,60.2c-0.9,9.2-2,10.4-10.9,12.8c-2.2,0.6-4.3,1.5-6.5,2c-6.9,1.5-12.1-2.1-11.8-8.9
					c0.4-10.6,1.6-21.2,2.4-31.8c0.6-8.5,1.3-17,1.6-25.6c0-1.2-2.4-2.6-3.7-3.8c-0.2-0.2-0.6,0-0.9,0c-16.2,0.3-16.4,0.2-18.5,16.5
					c-1.5,11.7-2.4,23.4-3.6,35.1c-0.3,2.6-0.2,5.2-0.8,7.7c-1.7,7.2-3.8,11.9-12.9,11.2c-2.2-0.2-4.5,0.2-6.8,0.1
					c-7.4,0-10.4-3-9.9-10.4c0.6-7.6,1.6-15.1,2.5-22.6c1.2-9.4,2.5-18.9,3.6-28.3c0.8-6.8,0.2-7.3-6.5-7.2
					c-9.1,0.1-18.1,0.6-27.2,0.6c-8.4,0.1-10.4-1.9-11.4-10.3c-0.3-2.4-0.7-4.8-1.1-7.2c-1.2-6.7,3.1-12.3,10-12.5c6-0.2,12,0,18,0
					C381.5,83.8,381.5,83.6,381.5,83.3z M447.5,89.8c-7.1,0-13.1-0.1-19.1,0c-3.1,0-4.3-0.8-3.8-4.3c1.2-7.6,1.9-15.3,2.7-23
					c0.3-2.4,0.1-4.9-3.1-4.9c-3.3,0.1-7.9-1.4-8.8,3.6c-1.4,7.7-2.5,15.6-3.1,23.5c-0.3,4.1-1.5,5.6-5.7,5.7
					c-13.6,0.5-27.1,1.4-40.7,2.3c-1.2,0.1-3.4,0.6-3.4,1.1c-0.2,3.5-0.5,7.1,0.4,10.4c0.4,1.3,3.9,2.5,5.9,2.4
					c11-0.3,22-0.9,33-1.4c7.3-0.3,7.9,0.3,7,7.4c-2.4,18.7-4.7,37.4-7.2,56.1c-0.4,3.2,0.1,5,3.5,5.5c5.1,0.8,9.3-0.7,9.8-3.8
					c1-6.2,1.9-12.4,2.6-18.6c1.4-12.8,2.5-25.6,3.8-38.4c0.2-1.6,0.1-3.5,1-4.7c1.3-1.7,3.2-3.9,5-4c9.4-0.6,18.8-0.6,28.1-0.9
					c3.3-0.1,5,1.2,4.7,4.5c-0.6,7.4-1.3,14.8-2,22.1c-1.2,13-2.5,26-3.7,39c-0.1,1.1,0.4,2.8,1.2,3.4c3.5,2.5,12.4-1.6,12.8-5.9
					c2.2-23.9,4.3-47.9,6.4-71.8c0.5-5.6-0.6-6.6-6.1-6.3C461.3,89.1,453.8,89.5,447.5,89.8z M495.6,56.7c-0.1,0-0.2,0-0.3,0
					c0-0.8,0.1-1.6,0.1-2.4c0.3-3.1-0.4-5.5-4.2-5.5c-3.3,0-6.9-0.1-7.4,4.3c-1.2,10.1-2.1,20.1-3.1,30.2c-0.3,3,1.2,4.3,4,4.1
					c2.8-0.2,6.8,1.7,7.5-2.9C493.5,75.2,494.5,66,495.6,56.7z M500.8,86.6c4.2,0.6,6.2-1.2,6.9-5.7c1.2-8.8,3.2-17.4,4.6-26.1
					c0.2-1.4-0.2-4.1-0.8-4.3c-2.7-0.8-5.7-1.5-8.3-0.8c-1.6,0.4-3.6,3-3.9,4.8c-1.4,9-2.2,18.2-3.4,27.2
					C495.3,85.7,496.8,87.2,500.8,86.6z"/>
				<path d="M131.3,86.5c-1.8-0.1-3.7-0.4-5.5-0.3c-25.5,1.3-51.1,2.7-76.6,3.9c-14.6,0.7-16.5-1-17-15.8c-0.1-3.4,0.2-7.3,1.9-10
					c1.4-2.3,5-4.2,7.8-4.4c17.1-1.5,34.2-2.4,51.3-3.7c26-1.9,51.9-3.9,77.9-5.9c10.4-0.8,13.1,2.1,13,12.6
					c-0.1,7.7-2.7,13.7-7.9,19.4c-14.5,15.6-28.5,31.6-42.7,47.5c-4.4,4.9-4.4,5.4,0.7,9.4c4.2,3.3,8.5,6.4,12.5,9.9
					c5,4.3,5.3,8.6,1.5,14c-1.7,2.4-3.4,4.7-5.3,6.9c-3.7,4.3-9.4,5-13.9,1.6c-16.1-12.2-32.2-24.3-48.1-36.7
					c-7-5.4-7.1-10.8-1.1-17.1c1.1-1.2,2.3-2.3,3.4-3.4c7.6-7.5,10.4-7.8,19-1.2c3.3,2.5,5.6,2.8,8.5-0.7
					c6.8-8.3,13.9-16.4,20.9-24.6C131.6,87.4,131.5,87,131.3,86.5z M117.7,136.1c0.9-1.2,1.5-2,2.1-2.7c17.4-19.5,34.8-39,52-58.7
					c2.4-2.8,3.9-6.9,4.5-10.7c1-5.6-0.4-6.7-6-6.3c-6.1,0.5-12.2,1.6-18.3,2.1c-24.2,1.9-48.4,3.7-72.5,5.4
					c-9.7,0.7-19.4,0.7-29.1,1.6c-10.5,0.9-11,1.9-9.6,12.3c0.4,3.4,2.3,4.2,5.3,4c15.7-1,31.3-1.9,47-2.8
					c17.6-1.1,35.2-2.1,52.8-3.1c1.4-0.1,2.8,0.4,4.9,0.8c-1.1,1.6-1.6,2.3-2.2,3c-11.4,13.2-22.9,26.3-34.2,39.5
					c-6.4,7.5-6.4,7.6-14,1.3c-7.2-5.9-7.1-5.8-13.7,0.7c-2.6,2.6-2.9,4.5,0.3,7c15.1,11.4,30,22.9,45,34.3c1.1,0.8,3.1,1.3,4.3,0.8
					c6.2-2.6,6.6-8.3,1.4-12.4C131.1,147,124.5,141.6,117.7,136.1z"/>
				<path d="M341.6,93.4c-1.6,2.6-2.7,5.7-4.9,7.8c-25.2,23.8-50.6,47.5-75.9,71.2c-8.4,7.9-12.5,7.8-19.9-0.9c-1.7-2-3.4-3.9-5-5.9
					c-5.1-6.1-4.9-10.6,1.1-15.9c10-8.7,20.1-17.2,30.2-25.7c17.5-14.8,35-29.6,52.5-44.4c8-6.8,14.5-5.1,18.4,4.7
					C339,87.1,340.1,89.8,341.6,93.4z M327.3,83.9c-1.8,1.4-3.5,2.6-5.1,4c-24.7,21-49.3,42.1-74.2,62.9c-10.5,8.7-8.1,7-1.2,15.5
					c3.3,4.1,5.7,3.2,9,0.1c24-22.7,48-45.4,72.1-68.1C333.6,92.8,333.6,90.1,327.3,83.9z"/>
				<path d="M210,82.8c7.2,1.4,15.9,2.9,24.6,4.7c6.3,1.3,12.5,3.2,18.7,4.6c3.8,0.9,6,3.8,5.6,6.9c-0.9,8.1-2,16.4-9.5,21.6
					c-1.6,1.1-4.3,1.5-6.3,1.1c-12.8-2.5-25.5-5.3-38.3-7.9c-7.3-1.5-10.3-6.4-8.2-13.4c1.2-4.1,2.1-8.4,3.4-12.5
					C201.3,83.9,204.7,83,210,82.8z M244,113.5c1-1,2.9-2.5,4.3-4.4c1.1-1.5,1.4-3.6,2.1-5.4c1.1-2.9,0.4-4.4-2.9-5.1
					c-12.1-2.5-24.2-5.3-36.3-7.8c-1.1-0.2-3.3,0.7-3.8,1.6c-1.3,2.5-2.1,5.4-2.9,8.2c-1,3.7,0.5,5.8,4.4,6.4
					c4.3,0.6,8.5,1.7,12.8,2.5C228.7,110.8,235.5,112,244,113.5z"/>
			</g>
		</g>
	</g>
</g>
</svg>
